<svg width="771" height="763" viewBox="0 0 771 763" fill="none" xmlns="http://www.w3.org/2000/svg">
<path d="M180 574L273 600L155 761L180 574Z" fill="#6AD27B" stroke="black" stroke-width="3" stroke-linejoin="round"/>
<path d="M2 555L198 360L273 351L197 461L347 506L287 595L181 567L185 496L2 555Z" fill="#6AD27B" stroke="black" stroke-width="3" stroke-linejoin="round"/>
<path d="M212 449L286 346L331 349L212 449Z" fill="#6AD27B" stroke="black" stroke-width="3" stroke-linejoin="round"/>
<path d="M232 441L385 318L413 335L396 356L232 441Z" fill="#6AD27B" stroke="black" stroke-width="3" stroke-linejoin="round"/>
<path d="M216 455L392 364L367 388L421 430L415 464L465 508L460 513L398 470L216 455Z" fill="#6AD27B" stroke="black" stroke-width="3" stroke-linejoin="round"/>
<path d="M218 463L396 478L455 516L448 526L218 463Z" fill="#6AD27B" stroke="black" stroke-width="3" stroke-linejoin="round"/>
<path d="M450 532L474 513L499 539L450 532Z" fill="#6AD27B" stroke="black" stroke-width="3" stroke-linejoin="round"/>
<path d="M376 387L443 320L421 421L376 387Z" fill="#6AD27B" stroke="black" stroke-width="3" stroke-linejoin="round"/>
<path d="M425 445L455 313L500 348L425 445Z" fill="#6AD27B" stroke="black" stroke-width="3" stroke-linejoin="round"/>
<path d="M422 463L505 356L497 525L422 463Z" fill="#6AD27B" stroke="black" stroke-width="3" stroke-linejoin="round"/>
<path d="M513 365L643 442L585 464L675 754L454 538L505 546L513 365Z" fill="#6AD27B" stroke="black" stroke-width="3" stroke-linejoin="round"/>
<path d="M465 239H520L555 378L513 355L465 239Z" fill="#6AD27B" stroke="black" stroke-width="3" stroke-linejoin="round"/>
<path d="M529 231L595 125L651 105L633 188L640 429L561 383L529 231Z" fill="#6AD27B" stroke="black" stroke-width="3" stroke-linejoin="round"/>
<path d="M657 104L769 2L676 117L657 104Z" fill="#6AD27B" stroke="black" stroke-width="3" stroke-linejoin="round"/>
<path d="M643 194L655 115L748 191L753 259L643 194Z" fill="#6AD27B" stroke="black" stroke-width="3" stroke-linejoin="round"/>
</svg>
